<mxfile host="app.diagrams.net" modified="2021-01-20T20:41:47.802Z" agent="5.0 (Windows)" etag="vWoPzXPlbcbdZ37ibbgK" version="14.2.5" type="github">
  <diagram id="R2lEEEUBdFMjLlhIrx00" name="Page-1">
    <mxGraphModel dx="1875" dy="570" grid="1" gridSize="10" guides="1" tooltips="1" connect="1" arrows="1" fold="1" page="1" pageScale="1" pageWidth="850" pageHeight="1100" math="0" shadow="0" extFonts="Permanent Marker^https://fonts.googleapis.com/css?family=Permanent+Marker">
      <root>
        <mxCell id="0" />
        <mxCell id="1" parent="0" />
        <mxCell id="Zt5S1DYIIlK5bA1bSea--27" value="" style="html=1;whiteSpace=wrap;shape=isoCube2;backgroundOutline=1;isoAngle=15;fillColor=#B2C9AB;strokeColor=#788AA3;fontColor=#46495D;" parent="1" vertex="1">
          <mxGeometry x="-100" y="160" width="90" height="100" as="geometry" />
        </mxCell>
        <mxCell id="Zt5S1DYIIlK5bA1bSea--28" value="&lt;div&gt;Médecin de Ville&lt;/div&gt;&lt;div&gt;&lt;br&gt;&lt;/div&gt;" style="shape=cylinder3;whiteSpace=wrap;html=1;boundedLbl=1;backgroundOutline=1;size=15;fillColor=#fad9d5;strokeColor=#ae4132;" parent="1" vertex="1">
          <mxGeometry x="-720" y="190" width="90" height="80" as="geometry" />
        </mxCell>
        <mxCell id="Zt5S1DYIIlK5bA1bSea--29" value="&amp;nbsp;EHPAD" style="shape=cylinder3;whiteSpace=wrap;html=1;boundedLbl=1;backgroundOutline=1;size=15;labelBorderColor=none;fillColor=#fff2cc;strokeColor=#d6b656;" parent="1" vertex="1">
          <mxGeometry x="-720" y="100" width="90" height="70" as="geometry" />
        </mxCell>
        <mxCell id="Zt5S1DYIIlK5bA1bSea--30" style="edgeStyle=orthogonalEdgeStyle;rounded=0;orthogonalLoop=1;jettySize=auto;html=1;exitX=0.5;exitY=1;exitDx=0;exitDy=0;exitPerimeter=0;strokeColor=#788AA3;fontColor=#46495D;" parent="1" source="Zt5S1DYIIlK5bA1bSea--29" target="Zt5S1DYIIlK5bA1bSea--29" edge="1">
          <mxGeometry relative="1" as="geometry" />
        </mxCell>
        <mxCell id="Zt5S1DYIIlK5bA1bSea--31" value="DataWarehouse" style="shape=cylinder3;whiteSpace=wrap;html=1;boundedLbl=1;backgroundOutline=1;size=15;fillColor=#ffff88;strokeColor=#36393d;" parent="1" vertex="1">
          <mxGeometry x="-410" y="145" width="120" height="170" as="geometry" />
        </mxCell>
        <mxCell id="Zt5S1DYIIlK5bA1bSea--32" value="Hô^pitaux" style="shape=cylinder3;whiteSpace=wrap;html=1;boundedLbl=1;backgroundOutline=1;size=15;fillColor=#bac8d3;strokeColor=#23445d;" parent="1" vertex="1">
          <mxGeometry x="-720" y="290" width="95" height="80" as="geometry" />
        </mxCell>
        <mxCell id="Zt5S1DYIIlK5bA1bSea--34" value="&lt;div&gt;&lt;br&gt;&lt;/div&gt;&lt;div&gt;EXTRAIRE&lt;/div&gt;&lt;div&gt;TRANSFORMER&lt;/div&gt;&lt;div&gt;INTEGRER&lt;br&gt;&lt;/div&gt;&lt;div&gt;&lt;br&gt;&lt;/div&gt;" style="html=1;shadow=0;dashed=0;align=left;verticalAlign=middle;shape=mxgraph.arrows2.arrow;dy=0.2;dx=72;notch=0;" parent="1" vertex="1">
          <mxGeometry x="-580" y="180" width="160" height="70" as="geometry" />
        </mxCell>
        <mxCell id="Zt5S1DYIIlK5bA1bSea--36" value="" style="html=1;shadow=0;dashed=0;align=center;verticalAlign=middle;shape=mxgraph.arrows2.arrow;dy=0.6;dx=40;notch=0;" parent="1" vertex="1">
          <mxGeometry x="-270" y="195" width="100" height="70" as="geometry" />
        </mxCell>
        <mxCell id="Zt5S1DYIIlK5bA1bSea--37" value="Icon" style="icon;html=1;image=img/clipart/Gear_128x128.png;align=left;fillColor=#B2C9AB;strokeColor=#788AA3;fontColor=#46495D;" parent="1" vertex="1">
          <mxGeometry x="-170" y="290" width="60" height="60" as="geometry" />
        </mxCell>
        <mxCell id="19BczwqkfXyMKYNiAe3n-3" value="ETL" style="html=1;shadow=0;dashed=0;align=center;verticalAlign=middle;shape=mxgraph.arrows2.arrow;dy=0;dx=38;notch=26;" vertex="1" parent="1">
          <mxGeometry x="-600" width="200" height="40" as="geometry" />
        </mxCell>
        <mxCell id="19BczwqkfXyMKYNiAe3n-4" value="SOURCE DE DONNEES" style="html=1;shadow=0;dashed=0;align=center;verticalAlign=middle;shape=mxgraph.arrows2.arrow;dy=0;dx=20;notch=26;" vertex="1" parent="1">
          <mxGeometry x="-750" width="190" height="40" as="geometry" />
        </mxCell>
        <mxCell id="19BczwqkfXyMKYNiAe3n-5" value="ENTREPÔT DE DONNEES" style="html=1;shadow=0;dashed=0;align=center;verticalAlign=middle;shape=mxgraph.arrows2.arrow;dy=0;dx=38;notch=26;" vertex="1" parent="1">
          <mxGeometry x="-440" width="200" height="40" as="geometry" />
        </mxCell>
        <mxCell id="19BczwqkfXyMKYNiAe3n-6" value="EXPLOITATION" style="html=1;shadow=0;dashed=0;align=center;verticalAlign=middle;shape=mxgraph.arrows2.arrow;dy=0;dx=38;notch=26;" vertex="1" parent="1">
          <mxGeometry x="-280" width="200" height="40" as="geometry" />
        </mxCell>
      </root>
    </mxGraphModel>
  </diagram>
</mxfile>
